:SAMPLES-PER-SECOND 30
:FULLY-SPECIFIED
:DEGREES
270
root  71.6874 40.3535 3.28623 -169.449 -87.4676 165.602
RightUpLeg  5.40096 -9.53208 -7.04012
RightLeg  6.09224 -5.5595 3.52312
RightFoot  -5.03867 -0.0266212 -0.133923
RightToes  2.91037e-010 0 -3.6325e-017
Spine  -0.48658 0.769993 -1.37133
Spine1  4.68808 1.04049 -0.464
HEad  11.5129 2.79472 3.0471
LeftShoulder1  0.806306 -3.17557 -4.09434
LeftArm  -20.5856 13.6387 -4.00727
LeftForeArm  22.091 -10.9559 -1.09832
LeftHand  -0.244104 0.0205437 5.32207
RightShoulder  3.35835 14.1419 11.94
RightArm  -17.579 -26.8346 -8.16867
RightForeArm  -8.85037 18.7724 4.49591
RightHand  -3.98276 10.4607 -28.8919
LeftUpLeg  6.65026 4.0394 0.796189
LeftLeg  3.44319 7.51933 -3.08355
LeftFoot  -5.40047 -0.0948553 2.42143
LeftToes  -1.10052e-010 1.3781e-010 -2.1811e-011
271
root  71.6564 40.3544 3.20109 -171.229 -87.3237 167.493
RightUpLeg  5.58689 -9.25187 -6.74784
RightLeg  5.55553 -5.67142 3.49171
RightFoot  -5.05512 -0.0213698 -0.230416
RightToes  2.91037e-010 0 -3.6325e-017
Spine  -1.17357 0.675842 -1.23519
Spine1  4.58852 0.966698 -0.482855
HEad  10.9287 1.98766 3.49485
LeftShoulder1  0.755464 -3.10556 -3.36726
LeftArm  -20.732 13.1087 -2.80753
LeftForeArm  20.6961 -9.92966 -0.891644
LeftHand  -0.244104 0.0205437 5.32207
RightShoulder  3.29341 14.1302 11.5471
RightArm  -17.4463 -25.7486 -9.57451
RightForeArm  -8.72671 18.6524 4.49932
RightHand  -3.84081 10.1732 -28.4018
LeftUpLeg  6.54893 4.02823 0.92487
LeftLeg  3.54068 7.62114 -2.96387
LeftFoot  -5.52771 -0.0808881 2.20314
LeftToes  -1.10052e-010 1.3781e-010 -2.1811e-011
272
root  71.6637 40.3514 3.11759 -172.843 -87.1559 169.229
RightUpLeg  5.49355 -9.04815 -6.44395
RightLeg  5.40927 -5.72092 3.39151
RightFoot  -5.09347 -0.0196195 -0.274898
RightToes  2.91037e-010 0 -3.6325e-017
Spine  -1.65928 0.59841 -1.13496
Spine1  4.61262 0.885291 -0.435294
HEad  10.3742 1.45876 3.60959
LeftShoulder1  0.693225 -2.77364 -2.92636
LeftArm  -20.864 12.3824 -1.89422
LeftForeArm  19.3606 -8.51158 -0.656794
LeftHand  -0.244104 0.0205437 5.32207
RightShoulder  3.26537 14.2235 11.2615
RightArm  -17.3945 -24.9109 -10.7436
RightForeArm  -8.8288 18.2908 4.45577
RightHand  -3.6346 9.6719 -27.8039
LeftUpLeg  6.35629 4.04697 1.06066
LeftLeg  3.72043 7.80113 -2.84065
LeftFoot  -5.68542 -0.0624148 1.92005
LeftToes  -1.10052e-010 1.3781e-010 -2.1811e-011
273
root  71.7025 40.3403 3.04577 -174.585 -86.8766 170.927
RightUpLeg  5.35093 -8.98908 -6.2724
RightLeg  5.61251 -5.51933 3.37997
RightFoot  -5.23171 -0.0197977 -0.290402
RightToes  2.91037e-010 0 -3.6325e-017
Spine  -1.72262 0.667327 -0.968584
Spine1  4.64341 0.958625 -0.443351
HEad  10.1171 1.02723 3.13978
LeftShoulder1  0.641597 -2.57415 -2.38036
LeftArm  -21.0448 11.8265 -1.67608
LeftForeArm  18.4765 -7.09786 -0.410985
LeftHand  -0.244104 0.0205437 5.32207
RightShoulder  3.22386 14.1214 11.1197
RightArm  -17.3996 -24.2867 -11.5729
RightForeArm  -8.84965 17.77 4.37322
RightHand  -3.52623 9.47422 -27.3569
LeftUpLeg  6.25614 4.07136 1.16413
LeftLeg  4.00797 8.06855 -2.67137
LeftFoot  -5.8988 -0.0466182 1.68182
LeftToes  -1.10052e-010 1.3781e-010 -2.1811e-011
274
root  71.7673 40.3234 2.99236 -176.135 -86.5537 172.236
RightUpLeg  5.30694 -9.01657 -6.20565
RightLeg  5.96781 -5.21606 3.40478
RightFoot  -5.40876 -0.0188699 -0.316016
RightToes  2.91037e-010 0 -3.6325e-017
Spine  -1.34516 0.848075 -0.670721
Spine1  4.64355 1.18671 -0.65704
HEad  9.94008 0.263838 2.23351
LeftShoulder1  0.63627 -2.85386 -1.76392
LeftArm  -20.9654 11.7637 -1.82726
LeftForeArm  18.1235 -6.00025 -0.260876
LeftHand  -0.244104 0.0205437 5.32207
RightShoulder  3.24701 13.9513 11.4657
RightArm  -16.9926 -23.8794 -12.485
RightForeArm  -8.89286 17.116 4.28376
RightHand  -3.50195 9.52726 -27.0853
LeftUpLeg  6.26082 4.09366 1.21233
LeftLeg  4.41337 8.33146 -2.44344
LeftFoot  -6.12851 -0.0356481 1.51977
LeftToes  -1.10052e-010 1.3781e-010 -2.1811e-011
275
root  71.8555 40.3063 2.95133 -176.673 -86.3959 172.498
RightUpLeg  5.27659 -9.01766 -6.14953
RightLeg  6.32831 -5.09862 3.35242
RightFoot  -5.57494 -0.0194545 -0.314294
RightToes  2.91037e-010 0 -3.6325e-017
Spine  -0.732378 0.949195 -0.513858
Spine1  4.63233 1.30879 -0.734678
HEad  9.48327 -0.710329 1.37533
LeftShoulder1  0.653508 -3.17474 -1.51191
LeftArm  -20.4283 11.8757 -1.91198
LeftForeArm  17.8323 -5.16311 -0.31396
LeftHand  -0.244104 0.0205437 5.32207
RightShoulder  3.32602 13.8698 12.0657
RightArm  -16.2717 -23.5682 -13.3734
RightForeArm  -8.65512 16.2938 4.17451
RightHand  -3.42183 9.39674 -26.7159
LeftUpLeg  6.19304 4.15467 1.21955
LeftLeg  4.91435 8.42684 -2.21597
LeftFoot  -6.29695 -0.0303524 1.44501
LeftToes  -1.10052e-010 1.3781e-010 -2.1811e-011
276
root  71.958 40.2927 2.91409 -176.298 -86.5021 171.956
RightUpLeg  5.17477 -8.9925 -6.07598
RightLeg  6.62197 -5.21301 3.26372
RightFoot  -5.73398 -0.0251631 -0.230068
RightToes  2.91037e-010 0 -3.6325e-017
Spine  -0.115465 0.866376 -0.681069
Spine1  4.64361 1.14022 -0.323285
HEad  8.83198 -1.01579 1.07074
LeftShoulder1  0.661337 -3.02525 -1.90568
LeftArm  -19.686 11.772 -1.85557
LeftForeArm  17.201 -4.47681 -0.518314
LeftHand  -0.244104 0.0205437 5.32207
RightShoulder  3.3556 13.9176 12.1957
RightArm  -15.8036 -23.4041 -13.6119
RightForeArm  -7.61254 15.3952 4.00427
RightHand  -3.28154 9.12583 -26.1278
LeftUpLeg  5.96498 4.29286 1.24368
LeftLeg  5.42168 8.2463 -2.0551
LeftFoot  -6.37585 -0.0304252 1.45072
LeftToes  -1.10052e-010 1.3781e-010 -2.1811e-011
277
root  72.0617 40.2853 2.87985 -175.87 -86.7348 171.465
RightUpLeg  5.03696 -8.99248 -6.00484
RightLeg  6.80209 -5.40724 3.24369
RightFoot  -5.84181 -0.0333178 -0.105854
RightToes  2.91037e-010 0 -3.6325e-017
Spine  0.422542 0.712558 -0.919665
Spine1  4.64307 0.852559 0.268627
HEad  8.39763 -0.362234 1.5056
LeftShoulder1  0.672338 -2.7416 -2.61243
LeftArm  -19.0774 11.6779 -1.83259
LeftForeArm  16.3942 -3.98129 -0.715884
LeftHand  -0.244104 0.0205437 5.32207
RightShoulder  3.31254 14.009 11.8115
RightArm  -15.7985 -23.5086 -13.1006
RightForeArm  -6.06145 14.621 3.78237
RightHand  -3.20902 9.06948 -25.6724
LeftUpLeg  5.67953 4.46038 1.32548
LeftLeg  5.78473 7.87011 -1.98786
LeftFoot  -6.38167 -0.0298974 1.44203
LeftToes  -1.10052e-010 1.3781e-010 -2.1811e-011
278
root  72.1607 40.2844 2.84968 -175.786 -86.9057 171.381
RightUpLeg  4.87213 -9.01066 -5.93662
RightLeg  6.88487 -5.56898 3.28196
RightFoot  -5.82695 -0.036173 -0.0628414
RightToes  2.91037e-010 0 -3.6325e-017
Spine  0.900362 0.643012 -0.980569
Spine1  4.57987 0.709132 0.559516
HEad  8.59365 0.625841 2.28317
LeftShoulder1  0.717397 -2.87879 -3.14969
LeftArm  -18.6468 11.8952 -1.96252
LeftForeArm  15.764 -3.63673 -0.828075
LeftHand  -0.244104 0.0205437 5.32207
RightShoulder  3.31193 14.052 11.756
RightArm  -15.862 -23.7104 -12.6289
RightForeArm  -5.09251 14.0527 3.59975
RightHand  -3.22623 9.14986 -25.6672
LeftUpLeg  5.43919 4.59586 1.45324
LeftLeg  5.91861 7.49949 -2.02564
LeftFoot  -6.31299 -0.0251427 1.36052
LeftToes  -1.10052e-010 1.3781e-010 -2.1811e-011
279
root  72.2595 40.2883 2.82015 -175.943 -86.9807 171.614
RightUpLeg  4.6167 -8.98982 -5.8251
RightLeg  6.92457 -5.72121 3.29965
RightFoot  -5.69822 -0.0310793 -0.143084
RightToes  2.91037e-010 0 -3.6325e-017
Spine  1.35729 0.675431 -0.976509
Spine1  4.45205 0.710777 0.661499
HEad  9.39902 1.1216 2.63078
LeftShoulder1  0.790617 -3.30053 -3.5838
LeftArm  -18.4083 12.1669 -2.21564
LeftForeArm  15.4486 -3.24556 -0.843853
LeftHand  -0.244104 0.0205437 5.32207
RightShoulder  3.39308 14.0005 12.3311
RightArm  -15.8179 -23.7814 -12.5845
RightForeArm  -5.07113 13.6861 3.51139
RightHand  -3.23421 9.07417 -25.856
LeftUpLeg  5.20466 4.75514 1.62578
LeftLeg  5.90909 7.2182 -2.16397
LeftFoot  -6.1754 -0.0221563 1.29731
LeftToes  -1.10052e-010 1.3781e-010 -2.1811e-011
